<?xml version="1.0" encoding="iso-8859-1"?>
<!-- Uploaded to: SVG Repo, www.svgrepo.com, Generator: SVG Repo Mixer Tools -->
<svg version="1.1" id="Layer_1" xmlns="http://www.w3.org/2000/svg" xmlns:xlink="http://www.w3.org/1999/xlink" 
	 viewBox="0 0 511.999 511.999" xml:space="preserve">
<polygon style="fill:#FFFFFF;" points="208.592,289.889 261.009,271.285 422.112,110.182 422.112,439.657 67.946,439.657 
	67.946,186.345 67.946,141.496 67.946,94.746 369.91,94.746 227.196,237.471 "/>
<g>
	<path style="fill:#E6E6E6;" d="M482.517,15.952c9.338,9.338,9.338,24.487,0,33.825l-21.151,21.151l-33.813-33.813l21.151-21.163
		c4.663-4.675,10.785-7.007,16.907-7.007C471.732,8.945,477.854,11.277,482.517,15.952z"/>
	<polygon style="fill:#E6E6E6;" points="422.112,110.182 261.009,271.285 208.592,289.889 227.196,237.471 369.91,94.746 
		420.677,43.978 427.553,37.115 461.366,70.928 	"/>
</g>
<rect x="22.487" y="141.495" style="fill:#4D4D4D;" width="45.459" height="44.849"/>
<g>
	<path style="fill:#808080;" d="M55.679,31.579h33.706C77.5,31.83,67.946,40.355,67.946,50.805v43.94v46.75H22.487V64.771
		C22.487,46.429,37.349,31.579,55.679,31.579z"/>
	<path style="fill:#808080;" d="M89.946,503.027h149.828v0.012H89.946H55.679c-18.329,0-33.191-14.862-33.191-33.203V186.345h45.459
		v253.312v44.12C67.946,494.406,77.799,503.027,89.946,503.027z"/>
</g>
<g>
	<path style="fill:#CCCCCC;" d="M422.112,439.657v44.12c0,10.629-9.864,19.25-22,19.25H239.774H89.946c-12.148,0-22-8.621-22-19.25
		v-44.12H422.112z"/>
	<path style="fill:#CCCCCC;" d="M89.384,31.579c0.191-0.012,0.371-0.012,0.562-0.012h310.166c9.386,0,17.421,5.153,20.565,12.411
		L369.91,94.746H67.946v-43.94C67.946,40.355,77.5,31.83,89.384,31.579z"/>
</g>
<g>
	<path style="fill:#333333;" d="M219.764,55.455c-4.954,0-8.967,4.015-8.967,8.967s4.014,8.967,8.967,8.967h50.537
		c4.954,0,8.967-4.015,8.967-8.967s-4.014-8.967-8.967-8.967H219.764z"/>
	<path style="fill:#333333;" d="M253.278,462.279h-16.491c-4.954,0-8.967,4.015-8.967,8.967s4.014,8.967,8.967,8.967h16.491
		c4.954,0,8.967-4.015,8.967-8.967S258.231,462.279,253.278,462.279z"/>
	<path style="fill:#333333;" d="M488.863,9.615c-12.822-12.821-33.682-12.819-46.502,0l-20.807,20.807
		c-5.629-4.926-13.219-7.82-21.438-7.82L55.684,22.605c-23.248,0-42.162,18.914-42.162,42.161v405.072
		c0,23.248,18.913,42.161,42.162,42.161l344.433-0.002c17.075,0,30.968-12.658,30.968-28.218V113.893l57.778-57.778
		C501.683,43.295,501.683,22.436,488.863,9.615z M427.548,49.795l21.136,21.136l-192.58,192.58l-32.761,11.625l11.627-32.761
		L427.548,49.795z M408.795,43.183l-42.6,42.6H76.92V50.81c0-5.553,5.936-10.243,12.975-10.268h149.878v-0.002h160.344
		C403.395,40.538,406.456,41.522,408.795,43.183z M58.985,177.375H31.456v-26.917h27.528v26.917H58.985z M55.684,40.541h5.434
		c-1.371,3.184-2.134,6.645-2.134,10.268v81.715H31.456V64.767C31.456,51.409,42.325,40.541,55.684,40.541z M31.456,469.839V195.31
		h27.528v288.471c0,3.629,0.764,7.096,2.139,10.285h-5.44C42.325,494.066,31.456,483.198,31.456,469.839z M400.117,494.063H89.951
		c-7.064,0-13.031-4.708-13.031-10.283v-35.154h336.231v35.154C413.151,489.355,407.182,494.063,400.117,494.063z M413.151,430.693
		H76.92V103.717h271.341L220.853,231.125c-0.942,0.943-1.664,2.085-2.11,3.342l-16.482,46.45h-56.832
		c-21.761,0-39.466,17.705-39.466,39.467s17.705,39.466,39.466,39.466h113.7c41.469,0,75.205-33.737,75.205-75.204
		c0-4.952-4.014-8.967-8.967-8.967s-8.967,4.015-8.967,8.967c0,31.579-25.691,57.27-57.27,57.27h-113.7
		c-11.873,0-21.531-9.66-21.531-21.531c0-11.873,9.659-21.533,21.531-21.533h63.165l0,0l0,0h0.002c0.469,0,0.925-0.047,1.375-0.116
		c0.072-0.011,0.142-0.02,0.214-0.032c0.456-0.081,0.897-0.198,1.326-0.346c0.026-0.01,0.054-0.012,0.08-0.022l52.419-18.6
		c1.258-0.446,2.4-1.167,3.343-2.11L413.15,131.829v298.864H413.151z M476.181,43.434l-14.815,14.815L440.23,37.114l14.815-14.815
		c5.825-5.826,15.308-5.829,21.136,0C482.009,28.125,482.009,37.606,476.181,43.434z"/>
</g>
</svg>